<svg width="105" height="107" viewBox="0 0 105 107" fill="none" xmlns="http://www.w3.org/2000/svg">
<g clip-path="url(#clip0_711_2067)">
<path d="M47.8739 92.078H32.0121C31.2528 92.078 30.5844 92.5625 30.3533 93.2852L27.3328 104.43C27.1182 105.095 27.6134 105.768 28.3149 105.768H44.7214" stroke="#2C2C2C" stroke-width="3" stroke-linecap="round" stroke-linejoin="round"></path>
<path d="M83.1631 92.078H99.0249C99.7842 92.078 100.453 92.5625 100.684 93.2852L103.704 104.43C103.919 105.095 103.424 105.768 102.722 105.768H86.3156" stroke="#2C2C2C" stroke-width="3" stroke-linecap="round" stroke-linejoin="round"></path>
<path d="M78.1864 89.9756C77.8893 89.0641 77.0393 88.4481 76.082 88.4481H54.9962C54.0388 88.4481 53.1888 89.0641 52.8917 89.9756L49.0789 104.076C48.8066 104.914 49.4338 105.776 50.3168 105.776H80.7613C81.6444 105.776 82.2716 104.914 81.9992 104.076L78.1864 89.9756V89.9756Z" stroke="#2C2C2C" stroke-width="3" stroke-linecap="round" stroke-linejoin="round"></path>
<path d="M55.0869 100.841L57.1006 93.3838H73.9858L76.0077 100.841H55.0869Z" fill="url(#paint0_linear_711_2067)"></path>
<path d="M76.875 79.1598L74.3744 69.9208C74.1681 69.2884 73.5739 68.8531 72.9054 68.8531H58.1825C57.514 68.8531 56.9198 69.2802 56.7135 69.9208L54.2129 79.1598" stroke="#2C2C2C" stroke-width="3" stroke-linecap="round" stroke-linejoin="round"></path>
<path d="M37.1953 92.078L40.4799 80.2931C40.7027 79.6115 41.33 79.1516 42.0479 79.1516H57.786C58.504 79.1516 59.1394 79.6115 59.354 80.2931L61.5245 88.4481" stroke="#2C2C2C" stroke-width="3" stroke-linecap="round" stroke-linejoin="round"></path>
<path d="M93.718 92.078L90.4334 80.2931C90.2106 79.6115 89.5834 79.1516 88.8654 79.1516H73.1274C72.4094 79.1516 71.7739 79.6115 71.5593 80.2931L69.4219 88.4481" stroke="#2C2C2C" stroke-width="3" stroke-linecap="round" stroke-linejoin="round"></path>
<path d="M54.2125 64.5991H11.5127V11.4564H85.4575V64.5991H76.8746" stroke="#2C2C2C" stroke-width="3" stroke-linecap="round" stroke-linejoin="round"></path>
<path d="M37.5835 74.8236H4.89426C2.88058 74.8236 1.23828 73.1976 1.23828 71.1855V4.86999C1.23828 2.85794 2.87233 1.23187 4.89426 1.23187H92.0848C94.0985 1.23187 95.7408 2.85794 95.7408 4.86999V71.1937C95.7408 73.1976 94.1067 74.8318 92.0848 74.8318" stroke="#2C2C2C" stroke-width="3" stroke-linecap="round" stroke-linejoin="round"></path>
<path d="M28.8765 79.127V82.6583H11.5127V79.127" stroke="#2C2C2C" stroke-width="3" stroke-linecap="round" stroke-linejoin="round"></path>
<path d="M54.79 30.4682H58.0334" stroke="#2C2C2C" stroke-width="3" stroke-linecap="round" stroke-linejoin="round"></path>
<path d="M63.3809 30.4682H66.6242" stroke="#2C2C2C" stroke-width="3" stroke-linecap="round" stroke-linejoin="round"></path>
<path d="M71.9727 30.4682H75.216" stroke="#2C2C2C" stroke-width="3" stroke-linecap="round" stroke-linejoin="round"></path>
<path d="M54.79 38.0319H58.0334" stroke="#2C2C2C" stroke-width="3" stroke-linecap="round" stroke-linejoin="round"></path>
<path d="M63.3809 38.0319H66.6242" stroke="#2C2C2C" stroke-width="3" stroke-linecap="round" stroke-linejoin="round"></path>
<path d="M71.9727 38.0319H75.216" stroke="#2C2C2C" stroke-width="3" stroke-linecap="round" stroke-linejoin="round"></path>
<path d="M54.79 45.5955H58.0334" stroke="#2C2C2C" stroke-width="3" stroke-linecap="round" stroke-linejoin="round"></path>
<path d="M63.3809 45.5955H66.6242" stroke="#2C2C2C" stroke-width="3" stroke-linecap="round" stroke-linejoin="round"></path>
<path d="M71.9727 45.5955H75.216" stroke="#2C2C2C" stroke-width="3" stroke-linecap="round" stroke-linejoin="round"></path>
<path d="M38.0002 50.3292C44.8248 47.548 48.0916 39.7881 45.2968 32.9969C42.502 26.2057 34.704 22.9549 27.8794 25.736C21.0549 28.5171 17.7881 36.277 20.5829 43.0683C23.3776 49.8595 31.1757 53.1103 38.0002 50.3292Z" stroke="#2C2C2C" stroke-width="3" stroke-linecap="round" stroke-linejoin="round"></path>
<path d="M32.9365 24.7441V33.9174" stroke="#2C2C2C" stroke-width="3" stroke-linecap="round" stroke-linejoin="round"></path>
<path d="M37.071 38.0319C37.071 40.2985 35.2224 42.1463 32.9364 42.1463C30.6504 42.1463 28.8018 40.3067 28.8018 38.0319C28.8018 35.757 30.6504 33.9174 32.9364 33.9174C35.2224 33.9174 37.071 35.757 37.071 38.0319Z" stroke="#2C2C2C" stroke-width="3" stroke-linecap="round" stroke-linejoin="round"></path>
</g>
<defs>
<linearGradient id="paint0_linear_711_2067" x1="86.4681" y1="103.544" x2="78.3512" y2="83.5263" gradientUnits="userSpaceOnUse">
<stop stop-color="#5B00E3"></stop>
<stop offset="1" stop-color="#FF3177"></stop>
</linearGradient>
<clipPath id="clip0_711_2067">
<rect width="105" height="107" fill="white"></rect>
</clipPath>
</defs>
</svg>
